# xmcd
#
# Track frame offsets:
# 150
# 5562
# 25354
# 42733
# 64675
# 81999
# 102177
# 117938
# 135527
#
# Disc length: 2091 seconds
#
# Revision: 0
# Processed by: cddbd v1.4PL0 Copyright (c) Steve Scherf et al.
# Submitted via: inCDius 1.1
#
DISCID=77082909
DTITLE=Randy Thompson - That's Not Me
DYEAR=1900
DGENRE=
TTITLE0=The Whole World
TTITLE1=Sound of the Rain
TTITLE2=That's Not Me
TTITLE3=The Lovin' Shown
TTITLE4=Dance Until Dawn
TTITLE5=If Love is What You Want
TTITLE6=Unknown Zone
TTITLE7=If That Wasn't Love
TTITLE8=Only One Way
EXTD=
EXTT0=
EXTT1=
EXTT2=
EXTT3=
EXTT4=
EXTT5=
EXTT6=
EXTT7=
EXTT8=
PLAYORDER=
